<?xml version="1.0" encoding="UTF-8" standalone="no"?>
<svg
   width="50"
   height="50"
   viewBox="0 0 50 50"
   fill="none"
   version="1.1"
   id="svg1"
   sodipodi:docname="heart-mini1.svg"
   inkscape:version="1.3.2 (091e20e, 2023-11-25, custom)"
   xmlns:inkscape="http://www.inkscape.org/namespaces/inkscape"
   xmlns:sodipodi="http://sodipodi.sourceforge.net/DTD/sodipodi-0.dtd"
   xmlns="http://www.w3.org/2000/svg"
   xmlns:svg="http://www.w3.org/2000/svg">
  <defs
     id="defs1" />
  <sodipodi:namedview
     id="namedview1"
     pagecolor="#ffffff"
     bordercolor="#999999"
     borderopacity="1"
     inkscape:showpageshadow="2"
     inkscape:pageopacity="0"
     inkscape:pagecheckerboard="0"
     inkscape:deskcolor="#d1d1d1"
     inkscape:zoom="11.313709"
     inkscape:cx="-0.44194174"
     inkscape:cy="10.208854"
     inkscape:window-width="1920"
     inkscape:window-height="1017"
     inkscape:window-x="-8"
     inkscape:window-y="-8"
     inkscape:window-maximized="1"
     inkscape:current-layer="svg1" />
  <path
     d="M 13.56875,6.0278899 C 11.549526,6.2328901 10.052971,6.6839254 8.4640868,7.5804188 6.5883091,8.6349356 4.9481285,10.304813 3.9641647,12.150174 c -0.7328893,1.382805 -1.1788851,2.841562 -1.3889248,4.534838 -0.097369,0.773384 -0.097369,2.513456 0,3.39807 0.3381862,3.093358 1.5784465,6.011054 3.838666,9.045919 0.5894431,0.796782 2.2859569,2.736093 3.0803999,3.527117 1.7425912,1.734131 3.0699622,2.911756 6.4577712,5.735681 3.848926,3.210708 5.207254,4.452767 6.59096,6.028694 0.943107,1.078095 1.563147,1.956949 1.952809,2.76543 0.122928,0.251976 0.230557,0.456976 0.246036,0.456976 0.0153,0 0.133187,-0.205 0.271594,-0.462915 0.384263,-0.738108 0.830258,-1.376686 1.547849,-2.220444 1.378666,-1.616963 2.839224,-2.941094 6.662771,-6.011055 3.208368,-2.577889 4.515221,-3.667682 5.817034,-4.857007 3.60811,-3.28684 5.781218,-6.099066 7.124067,-9.204124 0.93285,-2.15601 1.33259,-4.048526 1.33259,-6.327644 0,-2.296577 -0.425478,-4.165515 -1.358148,-5.975959 -2.003924,-3.9018398 -6.088806,-6.3568005 -10.557951,-6.3568005 -1.978368,0 -3.731218,0.4395173 -5.345661,1.3475287 -2.419144,1.3592279 -4.059145,3.4450438 -5.007292,6.3744398 l -0.194741,0.60348 -0.220479,-0.708951 C 23.501443,9.5841633 20.416183,6.84213 16.157078,6.1331792 15.649708,6.0512917 14.009527,5.9809143 13.56875,6.0278888 Z m 7.28027,2.4391747 c 1.830372,1.1877046 3.47582,3.9909074 4.190013,6.4485394 0.843484,-2.714485 2.419164,-5.2841785 4.884834,-6.7981237 3.748113,-2.3343399 8.809853,-1.3221459 11.843998,2.3219597 1.829702,2.191287 2.757331,4.985875 2.757331,8.284414 0,2.577889 -0.481812,4.780695 -1.578625,7.218017 -0.886594,1.962709 -2.070519,3.767214 -3.777293,5.765018 -1.773368,2.068179 -3.054663,3.339576 -6.944624,6.843114 -4.62303,4.165696 -6.134883,5.853031 -7.231696,8.096873 l -0.240997,0.486313 -0.179263,-0.398481 C 24.290847,46.09613 23.721922,45.152842 23.168295,44.391336 22.071482,42.897301 20.528852,41.303736 16.977078,37.97586 15.050006,36.171355 13.963452,35.122598 13.107454,34.243743 12.33371,33.446961 10.673012,31.554625 10.088788,30.804638 7.4083088,27.359773 5.9322724,23.9968 5.5478307,20.463924 5.4504607,19.544034 5.4452405,17.827361 5.5427707,16.948686 5.973288,12.987992 7.8593248,9.8185003 10.862693,7.9904181 15.447773,5.2015541 19.09359,7.3279893 20.84902,8.4670646 Z"
     fill="#8e6808"
     fill-opacity="0.4"
     id="path1"
     style="stroke-width:1.79983"
     sodipodi:nodetypes="scccccccccscccccscscccccssscscscccccccccccccs" />
</svg>
