<?xml version="1.0" encoding="UTF-8" standalone="no"?>
<svg
   width="150"
   height="150"
   viewBox="0 0 150 150"
   fill="none"
   version="1.1"
   id="svg4"
   sodipodi:docname="letter1.svg"
   inkscape:version="1.3.2 (091e20e, 2023-11-25, custom)"
   xml:space="preserve"
   xmlns:inkscape="http://www.inkscape.org/namespaces/inkscape"
   xmlns:sodipodi="http://sodipodi.sourceforge.net/DTD/sodipodi-0.dtd"
   xmlns="http://www.w3.org/2000/svg"
   xmlns:svg="http://www.w3.org/2000/svg"><defs
     id="defs4"><inkscape:path-effect
       effect="bspline"
       id="path-effect5"
       is_visible="true"
       lpeversion="1.3"
       weight="33.333333"
       steps="2"
       helper_size="0"
       apply_no_weight="true"
       apply_with_weight="true"
       only_selected="false"
       uniform="false" /><inkscape:path-effect
       effect="bspline"
       id="path-effect5-3"
       is_visible="true"
       lpeversion="1.3"
       weight="33.333333"
       steps="2"
       helper_size="0"
       apply_no_weight="true"
       apply_with_weight="true"
       only_selected="false"
       uniform="false" /></defs><sodipodi:namedview
     id="namedview4"
     pagecolor="#ffffff"
     bordercolor="#999999"
     borderopacity="1"
     inkscape:showpageshadow="2"
     inkscape:pageopacity="0"
     inkscape:pagecheckerboard="0"
     inkscape:deskcolor="#d1d1d1"
     inkscape:zoom="4"
     inkscape:cx="57.75"
     inkscape:cy="74.625"
     inkscape:window-width="1920"
     inkscape:window-height="1017"
     inkscape:window-x="-8"
     inkscape:window-y="-8"
     inkscape:window-maximized="1"
     inkscape:current-layer="g18" /><g
     id="g18"
     style="fill:#d3bba1;fill-opacity:1"
     transform="matrix(0.95830015,0,0,1.010837,0.3322346,-1.2634552)"><path
       d="m 7.9687,32.8594 c 0.09375,0.082 11.0625,8.2734 24.375,18.1875 13.3125,9.914 28.2539,21.0468 33.2109,24.7383 l 9.0118,6.7148 0.3632,-0.2695 c 0.1993,-0.1524 15.1875,-11.3203 33.2934,-24.8086 18.117,-13.4883 32.976,-24.5743 33.035,-24.6328 0.07,-0.0469 -29.942,-0.0938 -66.6682,-0.0938 -56.4961,0 -66.76173,0.0234 -66.6211,0.1641 z"
       fill="#000000"
       fill-opacity="0.4"
       id="path1"
       style="fill:#d3bba1;fill-opacity:1" /><path
       d="m 8.3378615,66.352877 c -0.04688,16.0078 -0.07032,33.469203 -0.04688,38.801203 l 0.03516,9.703 13.4297005,-15.328002 c 7.3945,-8.426201 16.6523,-18.996501 20.5898,-23.496501 l 7.1485,-8.1563 -20.168,-15.0351 c -11.0977,-8.2617 -20.3437505,-15.1523 -20.5429705,-15.3047 l -0.375,-0.2695 z"
       fill="#000000"
       fill-opacity="0.5"
       id="path2"
       style="fill:#d3bba1;fill-opacity:1" /><path
       d="m 138.41208,37.74562 c -0.129,0.1172 -9.246,6.9375 -20.274,15.1406 -11.015,8.2032 -20.132998,15 -20.237998,15.1055 -0.188,0.1758 0.023,0.457 3.397998,4.3008 1.981,2.2617 11.192,12.7734 20.473,23.3672 l 16.875,19.2541 0.035,-19.3596 c 0.012,-10.6406 0.012,-28.0547 0,-38.6836 -0.035,-19.3359 -0.035,-19.3476 -0.269,-19.125 z"
       fill="#000000"
       fill-opacity="0.5"
       id="path3"
       style="fill:#d3bba1;fill-opacity:1" /><path
       d="m 85.957,80.2148 c -6.2461,4.6641 -11.414,8.4493 -11.4843,8.4024 -0.0586,-0.0352 -5.168,-3.832 -11.3321,-8.4258 -6.1758,-4.5937 -11.2734,-8.3555 -11.332,-8.3555 -0.0586,0 -8.9297,10.0547 -19.6992,22.3477 l -19.5938,22.3594 31.0782,0.035 c 17.0859,0.012 45.0117,0.012 62.0512,0 l 30.972,-0.035 -19.558,-22.3242 C 106.289,81.9375 97.4531,71.8594 97.4062,71.8125 97.3594,71.7773 92.2148,75.5508 85.957,80.2148 Z"
       fill="#000000"
       fill-opacity="0.6"
       id="path4"
       style="fill:#d3bba1;fill-opacity:1" /></g><g
     id="g12"
     transform="matrix(0.7344978,0,0,0.69489861,-107.83127,20.303314)"
     style="fill:#f5e1ce;fill-opacity:1;stroke:none;stroke-opacity:1"><path
       style="fill:#f5e1ce;fill-opacity:1;stroke:none;stroke-width:1.00157;stroke-linecap:round;stroke-opacity:1"
       d="m 243.41716,53.836798 c -1.30906,-4.210277 -2.61813,-8.420561 -8.16939,-10.602864 -5.55126,-2.182302 -15.3447,-2.33662 -20.69818,3.036889 -5.35349,5.373509 -6.267,16.274762 -3.73716,24.25628 2.52984,7.981518 8.50289,13.042992 14.46299,19.499219 5.96009,6.456228 11.90696,14.306928 17.85392,22.157748"
       id="path5"
       inkscape:path-effect="#path-effect5"
       inkscape:original-d="m 243.41716,53.836798 c -1.30906,-4.210278 -2.61813,-8.42056 -3.92719,-12.630848 -9.79346,-0.154318 -19.5869,-0.308636 -29.38035,-0.462954 -0.91352,10.901336 -1.82703,21.802589 -2.74056,32.70402 5.97321,5.061603 11.94626,10.123082 17.91947,15.184683 5.94698,7.850853 11.89385,15.701551 17.84081,23.552371"
       sodipodi:nodetypes="cccccc" /><path
       style="fill:#f5e1ce;fill-opacity:1;stroke:none;stroke-width:1.00157;stroke-linecap:round;stroke-opacity:1"
       d="m 243.41716,53.836798 c -1.30906,-4.210278 -2.61813,-8.42056 -8.16939,-10.602863 -5.55126,-2.182303 -15.3447,-2.336621 -20.69818,3.036888 -5.35349,5.373509 -6.267,16.274762 -3.73716,24.25628 2.52984,7.981518 8.50289,13.042992 14.55893,19.499218 6.05603,6.456227 12.19478,14.306929 18.33362,22.157749"
       id="path5-0"
       inkscape:path-effect="#path-effect5-3"
       inkscape:original-d="m 243.41716,53.836798 c -1.30906,-4.210279 -2.61812,-8.420562 -3.92719,-12.630848 -9.79346,-0.154318 -19.5869,-0.308636 -29.38035,-0.462954 -0.91352,10.901336 -1.82703,21.802589 -2.74056,32.70402 5.97321,5.061603 11.94626,10.123082 17.91947,15.184683 6.13886,7.850851 12.27761,15.701551 18.41645,23.552371"
       sodipodi:nodetypes="cccccc"
       transform="matrix(-1,0,0,1,486.83432,0)" /><rect
       style="fill:#f5e1ce;fill-opacity:1;stroke:none;stroke-width:0.602989;stroke-linecap:round;stroke-opacity:1"
       id="rect6"
       width="0.90759766"
       height="56.957565"
       x="242.96336"
       y="53.8368" /><path
       id="rect7"
       style="fill:#f5e1ce;fill-opacity:1;stroke:none;stroke-width:1.00157;stroke-linecap:round;stroke-opacity:1"
       d="m 243.04636,110.58984 h 0.16597 l 0.14003,1.30902 -0.22302,0.28521 -0.15115,-0.19954 z"
       sodipodi:nodetypes="cccccc" /></g></svg>
